<mxfile host="Electron" agent="Mozilla/5.0 (Windows NT 10.0; Win64; x64) AppleWebKit/537.36 (KHTML, like Gecko) draw.io/24.7.8 Chrome/128.0.6613.36 Electron/32.0.1 Safari/537.36" version="24.7.8">
  <diagram name="19_DSA_Hashing_count_appear_num_list-m_to_list-n" id="dyUAlskIhwWiV229W3Fm">
    <mxGraphModel dx="2590" dy="1515" grid="1" gridSize="10" guides="1" tooltips="1" connect="1" arrows="1" fold="1" page="1" pageScale="1" pageWidth="850" pageHeight="1100" math="0" shadow="0">
      <root>
        <mxCell id="0" />
        <mxCell id="1" parent="0" />
        <mxCell id="tuftcLlnEUaud0aJPAKl-2" value="Initialize empty frequency dict" style="whiteSpace=wrap;strokeWidth=2;" vertex="1" parent="1">
          <mxGeometry x="300" y="395" width="237" height="33" as="geometry" />
        </mxCell>
        <mxCell id="tuftcLlnEUaud0aJPAKl-3" value="Loop through each number in list n" style="whiteSpace=wrap;strokeWidth=2;" vertex="1" parent="1">
          <mxGeometry x="285" y="479" width="266" height="33" as="geometry" />
        </mxCell>
        <mxCell id="tuftcLlnEUaud0aJPAKl-4" value="Count occurrences in dictionary" style="whiteSpace=wrap;strokeWidth=2;" vertex="1" parent="1">
          <mxGeometry x="296" y="562" width="244" height="33" as="geometry" />
        </mxCell>
        <mxCell id="tuftcLlnEUaud0aJPAKl-5" value="Loop through each number in list m" style="whiteSpace=wrap;strokeWidth=2;" vertex="1" parent="1">
          <mxGeometry x="283" y="646" width="271" height="33" as="geometry" />
        </mxCell>
        <mxCell id="tuftcLlnEUaud0aJPAKl-6" value="Append count from dictionary to result" style="whiteSpace=wrap;strokeWidth=2;" vertex="1" parent="1">
          <mxGeometry x="270" y="729" width="296" height="33" as="geometry" />
        </mxCell>
        <mxCell id="tuftcLlnEUaud0aJPAKl-15" style="edgeStyle=orthogonalEdgeStyle;rounded=0;orthogonalLoop=1;jettySize=auto;html=1;" edge="1" parent="1" source="tuftcLlnEUaud0aJPAKl-7" target="tuftcLlnEUaud0aJPAKl-14">
          <mxGeometry relative="1" as="geometry" />
        </mxCell>
        <mxCell id="tuftcLlnEUaud0aJPAKl-7" value="Print result" style="whiteSpace=wrap;strokeWidth=2;" vertex="1" parent="1">
          <mxGeometry x="371" y="812" width="95" height="33" as="geometry" />
        </mxCell>
        <mxCell id="tuftcLlnEUaud0aJPAKl-8" value="" style="curved=1;startArrow=none;endArrow=block;exitX=0.5;exitY=1;entryX=0.5;entryY=0.01;rounded=0;exitDx=0;exitDy=0;" edge="1" parent="1" source="tuftcLlnEUaud0aJPAKl-16" target="tuftcLlnEUaud0aJPAKl-2">
          <mxGeometry relative="1" as="geometry">
            <Array as="points" />
            <mxPoint x="418" y="345" as="sourcePoint" />
          </mxGeometry>
        </mxCell>
        <mxCell id="tuftcLlnEUaud0aJPAKl-9" value="" style="curved=1;startArrow=none;endArrow=block;exitX=0.5;exitY=1.02;entryX=0.5;entryY=-0.01;rounded=0;" edge="1" parent="1" source="tuftcLlnEUaud0aJPAKl-2" target="tuftcLlnEUaud0aJPAKl-3">
          <mxGeometry relative="1" as="geometry">
            <Array as="points" />
          </mxGeometry>
        </mxCell>
        <mxCell id="tuftcLlnEUaud0aJPAKl-10" value="" style="curved=1;startArrow=none;endArrow=block;exitX=0.5;exitY=1.01;entryX=0.5;entryY=0.01;rounded=0;" edge="1" parent="1" source="tuftcLlnEUaud0aJPAKl-3" target="tuftcLlnEUaud0aJPAKl-4">
          <mxGeometry relative="1" as="geometry">
            <Array as="points" />
          </mxGeometry>
        </mxCell>
        <mxCell id="tuftcLlnEUaud0aJPAKl-11" value="" style="curved=1;startArrow=none;endArrow=block;exitX=0.5;exitY=1.02;entryX=0.5;entryY=-0.01;rounded=0;" edge="1" parent="1" source="tuftcLlnEUaud0aJPAKl-4" target="tuftcLlnEUaud0aJPAKl-5">
          <mxGeometry relative="1" as="geometry">
            <Array as="points" />
          </mxGeometry>
        </mxCell>
        <mxCell id="tuftcLlnEUaud0aJPAKl-12" value="" style="curved=1;startArrow=none;endArrow=block;exitX=0.5;exitY=1;entryX=0.5;entryY=0;rounded=0;" edge="1" parent="1" source="tuftcLlnEUaud0aJPAKl-5" target="tuftcLlnEUaud0aJPAKl-6">
          <mxGeometry relative="1" as="geometry">
            <Array as="points" />
          </mxGeometry>
        </mxCell>
        <mxCell id="tuftcLlnEUaud0aJPAKl-13" value="" style="curved=1;startArrow=none;endArrow=block;exitX=0.5;exitY=1.01;entryX=0.5;entryY=0.01;rounded=0;" edge="1" parent="1" source="tuftcLlnEUaud0aJPAKl-6" target="tuftcLlnEUaud0aJPAKl-7">
          <mxGeometry relative="1" as="geometry">
            <Array as="points" />
          </mxGeometry>
        </mxCell>
        <mxCell id="tuftcLlnEUaud0aJPAKl-14" value="&lt;font style=&quot;font-size: 24px;&quot;&gt;End&lt;/font&gt;" style="ellipse;whiteSpace=wrap;html=1;fillColor=#e51400;fontColor=#ffffff;strokeColor=#B20000;" vertex="1" parent="1">
          <mxGeometry x="326.38" y="922" width="184.25" height="83" as="geometry" />
        </mxCell>
        <mxCell id="tuftcLlnEUaud0aJPAKl-16" value="&lt;font style=&quot;font-size: 24px;&quot;&gt;Start&lt;/font&gt;" style="ellipse;whiteSpace=wrap;html=1;fillColor=#008a00;fontColor=#ffffff;strokeColor=#005700;" vertex="1" parent="1">
          <mxGeometry x="325.88" y="240" width="184.25" height="83" as="geometry" />
        </mxCell>
        <mxCell id="tuftcLlnEUaud0aJPAKl-17" value="&lt;font style=&quot;font-size: 24px;&quot;&gt;19. Count how many times each number in list m appears in list n.&lt;/font&gt;" style="text;whiteSpace=wrap;html=1;" vertex="1" parent="1">
          <mxGeometry x="60" y="70" width="750" height="80" as="geometry" />
        </mxCell>
        <mxCell id="tuftcLlnEUaud0aJPAKl-18" value="" style="shape=image;verticalLabelPosition=bottom;labelBackgroundColor=default;verticalAlign=top;aspect=fixed;imageAspect=0;image=data:image/png,iVBORw0KGgoAAAANSUhEUgAAAuIAAAIDCAYAAABB+3sYAAAAAXNSR0IArs4c6QAAAARnQU1BAACxjwv8YQUAAAAJcEhZcwAADsMAAA7DAcdvqGQAAGbtSURBVHhe7d1daCPpve/734wukg2RtS+GhrQtshjv0Xhr6WLnzAS7DlqLmQHHCmJYw8JpkovNwIBArCxMnNCEQMjshIGcTbOWQSTBIAg05yKhYxYdBhF5GTpDltllk8lZ+0Lb8Wi25vQgqweavpE1Nz0HMeeiquRSqWRX6cXll+8HBC3p8aOnnqdK/ddT/3rqmVar9bkAAAAAnKtnHj58eGYgnkwmvS8BAAAAGMOz3hcAAAAATB+BOAAAABABAnEAAAAgAgTiAAAAQAQIxAEAAIAIEIgDAAAAESAQBwAAACJAIA5MUedwR1tbW9rZb3nfAq6Uy7avX7b24nK6bPvZZWvvVUAgfoE5BwTHw2XVUavZliS1m0diGCfjKh8Xl3fbotzXW9rf2tKW+3FmB0bZXlwfUe5nHBeXxUQC8c7hjrZ2DtWxn7f2t/qeXxedwx3tbO2z815h4cY4rtlkQpKUSM5p1vs2cGVctn19Ou0N9/2Aq286+9n0TKe9HBenm0ggftxuSzNxxSVJHXWO5Xp+fRy327J+S+KqCjvG8YVlra6uanlxUl9pwMUU3b4+q8XVVa2urmp11VDS+/YQ02hv2O8HXH3T2M+C4bi4LCYQiFuBdyIxYz8/VpseBwAAAE71zMOHDz/3vuiVTPr9lmppf8tU0/uyV9LQ6qi/rDotHR4cqGbnLEkJJTNLWlzwzrV31Nrf00Hz5FdXIpFUemlRs66incMdbdfaShqr6mtSa19bZlOJzIqW7bqtslJmZUnx1oEOak2r7kRSmaVF9Zpg/+1p3PWG4W5vurOvvWFtOPmLM/uhtb8ls5mUsbo45LSTPa5hx61zqJ3tmmaMVc0d7chstqVERivLs2rt76nWbCuRNPp/Zdvj2zylvQozFnYb2omMVpYXBs7IWNueUGZl2afvThF6jH2ODb/+HKXP1FHr0NUHSiiRTGtpcXZgewfLSolkRun0Ql//huet95Q2BBzjngDHfPjjIpjA+1mY75KQY3zShmXNtoJsW9CxsPbJ48yKlhekQ/uzZe8TS4uDx0swAff1kP07urO+v4K31+LtX59jKPT3Q0Ah953QAh6bYfbJMGXtvwi4/wZvb/h93dsGnzEOLfh+xnERfgPPp8/OzwRmxKekc6idbdP1H7IktdWs7emwL/m8o8OdbZmug1OS2u2mzO0dT9mw2mrubct07WxqN1XbPs9cp4SOD3a0fWYbgvXDTCIh6VidYf3S6ehY7jMc4Rwf2P9hyGrngetLsN08cI1HR4d71vgOtte7bQo2FvFZJRPW662B7WvpqCkpmb5wB2nwPpNa+54+UFvtpqltn2syBstK7WZN5sFg74YxWO+wNoQc48DHvEIcF2EF2M9GEGaMJam557dtg99nwcfC1m5pf2u7r4/bzZq2z7yIa1Km07/TMti/kzmGwgi77wQT8tiU1NzbCrRPKkTZwf4dtv+Gb2/QfX2wDec/xhwXo7hcfXaa2He/+93/5n3RK5Gwkvf7zWgunVY6nVDn4EgJY1VfX0ornXxWrcZj3XCez40S0HV0+EdTzadSImnola8v6avptNLppBLPHuuzmTk99wW75OEfZTafSomMjFf+Vktftct1nujouK3HnyV6bfjsyUdqPH6qRDKtvmZ1Wjo4OtYXb/wnzdsVO2Wf9rUhqUSnoaPjYz2TsOuYmVM6nVY6nVaic6Cj46SM1a9ryX4tnU736gzLakNbT58+Pb0NIfrhC0+f6ODosb5ww/7b1r62/vUvejY5b/Xpk4b+/ehYN+a/2t9HZ/nsiT5qPFb76VMlMit6ff4zHRw91vHxUyWNVRn/saXG4/bJ5+ozPXnymW78taG/Xfqq3Vf+2xZ4LPQFPffFjg6OHuvpf0j293vrL9o7Olbyr5fCbZdGGWPn2Dg5Po4TycFjIWyftfb1r//rWEoaWnEfE50nOnrc1GeuPpNa+svekY6TGa18/W/tsmklE8/qs2e+oLnnwnaCLVQbgo9xmGM+zHERRvD9LMR3ScgxHrptzz7R0eN2/34daiw6ah0c6fHxYx0roYzxijUmyYQ6jSMdHz+jRHpO4bst4L4esn9HZ23nsDaEaW/gYyj090NAIfedcIIfmyf7pGfcfPbJMGXD7b/B2xtuXw84xqEF3884LsI7nz47P+PPiHc6OlZCJynibbXdz0fRaanZtk6NLPedooprdsF92sFZaicpY9l9Gimu2cUlZRKSxl2Cp68Ncc3OWWk6x0OnlKfgzDaE6IeZhBKuv+10jq1fln1TyGOMXyKjJfeUcyKj9KwUj3srjGthcVELfef+TrbN15n9IGl2TklJ7Warb0alddTsteXCCdhnLWtKX4b3mFhMKympeeSzpzebarnGNj67oMWF0TshXBtCjHHgY94lyP4wimnUG3CMHYnMSn8bFqz+de/X4cbCkZSxunwyJvFZ+Q3HVE2jf6dpwsdQaCH3nWBCHJu2IPtkmLLh9t/w7Q21r0c9xuK4GMll67MhRg7EO/Z6t1vbNbXVVm3bXqfSbEq954OnogI5tk4/JefOGlT7wlDfZXbisr6nTknDCODsNkzf2W0I0Q/xuGvWywrgk8lk7wvSCsxnFHd/34WQSLq/VAef9+m0tL9j70fO45ScsrP7QZJmlc4k1Jee0jnUQfOMtkTI2y7vc4u9GpGaMr1rwzq5fccd13+Is1o0kkqorZq5ra2tHe0fHvqk7IQRtg0hxjjwMX8iTNkwplGvd0y9z71mBg7AGfWfmBxhLOT/HTG7uKrVodeMTN40+nc6pnEMhefdV7zPRxb02LSdvU+eOLvsCPtvyPYG29cvxhiL42Ikl6fPTjdyID5NVjCI6bC+ENvtYzuAT2ounVDCDlyP220pkRjhFHVIdj5wcwpL7MRnrS8JZ5a/02qqraTSvtOqV9jsopZXV7RiZJRMtNWs1WRun+Md00KMMcc8LqSoj6FpCXFsXgjTbO9VHeNpos8mauRA3FlrciWTkHUKyFqv0khap85WVle1uhpydQqbc8ot8OkF3/QT5xf32bO7raNJBgHjzcCPJVA/2DPkxx11WkdqJhKaic9aB5Pzk/Yc1oBvHdTUlpTIGPa+Yj+MYecOQ7Av2rRm+e20HZ/ZkdFFMcb2uPWOLZ+Hz0oxUtw6Zbi8qtXVFVknC0a9wCtcG8KMcehj/oKa7HeJi5O60zs2w40FxhH2GIri+yGcMMfmUAP75CkGyobbfyfS3lOFHWOE77OLf1xEZeRA3HHc9wvVCfrG5OT51ra1c+jOP+uodbjvGmgn56spc99Tbn9PNU+6hvOfffPIuSK7o9a+64r0MVkrkrTVbA3mzE1XuH6YsabE1Tpq2qc5rbtptZsHmlYcMcxMfKb3ZdtpHWr/4JRTjYHFtZBOSu2aDg5barYTykwoOTy6MXbGraa9/dbZX2idQ+3vH6rVV9C5a1pb7RHHOVQbbIHGOPAxfzFM+7tE7r2r09LhnhWIuE/FjjIWCGGEYyjK74dRBDo2e/r3yX2ffdJVwPVP/7Kj7L/h2hvACGN87Y3QZxfjuOjocN9KbbpoM/djrCNuae1vyTx21m22ltCrzZy2/mRAQ9eg9K4D7bP+pSORlLHszgcbUtYOTAfXEQ+wTrDbkDb7lg0gXBuGbJsG+8Gpt68vXW0fqb32mrdy/tbbRvu5sy0nbfDn3uZw/dB786Q/hqwrPpIgYzykjKNXNmSfyTm+hnRbX/84a6p7ylhOW0f+LMHbEGaMpdP6rf+YH21/OFu4eoccb97vkpBjfGqfDazrG3wszl5HeERDx8wy9ndqECHaEKrsKMfQkPpH2raQ+04Yp+5nYY5jz/4UpmyY/ffUesfZ10cZ4yCG7AcOjgvLqNs2Up/1tXtIOyMy5oy4dwZ8gnfVnF2084/cV3hYN/fo799ZLa4YyiT7yyWShlb6gnDZZTPWWtN2uWTG0MqydZX22GYXtWIkh17AMl3B++HkantX2o49Iyn5XWgzefGFZa1kkjpprd1WI+N6bRwnV8hP7OImRT3GcS0sr8hIWivfnCq+oKWBdtp9PNYXUPA2hB7jwMf8RTCd75L4bFqZZKJ/3BIJJTMrPkFF8LHACEY5hiL9fggu9LHplbD394F90sfQssH337HbO8woY3zdjdJnF+G4iM8qaX9hJyaaqjq+sWfEgYvq7LuIAgBOM3T20UeYsgAsY86IAxeRk68rJTJpgnAAAHAhEYjj6mjt2+vLblsXzXlvhAEAAHCBEIjjCnJy4yd0gSYAAMAUkCMOAAAARIAZcQAAACACBOIAAABABAjEAQAAgAgQiAMAAAARIBAHAAAAIkAgDgAAAESAQBwAAACIAIE4AAAAEAECcQAAACACBOIAAABABAjEAQAAgAgQiAMAAAARIBAHAAAAIkAgDgAAAESAQBwAAACIAIE4AAAAEAECcQAAACACBOIAAABABAjEAQAAgAgQiAMAAAARIBAHAAAAIkAgDgAAAESAQBwAAACIAIE4AAAAEAECcQAAACACBOIAAABABAjEAQAAgAhcy0C8UcoqFou5HlmVGt5SAIDINErK9n1PxxQrVr2lAOBSe+bhw4efe1/0SiaT3pcutUYpq9S66XrF0EZ9V2vzrpck6aiq+q/f0QcPnLKGbr51Vy9901swnE/3Svrg/17Xo4/sF543dPOVH+nFb+b0JU/ZUX3626z+8Cur3Tff7uqlJW+JIBqqfyelD5x2+nl+Q6/+Ym2Edlf152/k9cj7ssap03J5+ref1e57evSRs78V9PLvN/VlT7nALtn+O516p7WfTateR0Of3HlTHzww1ZlIfbKOZ7tOi6Gbb43bv44w7Q1YtlFSNrUu9ze1ChV1N3PuVwDgUruWM+KWgirdrrrdrrpdvyC8pPcKedd/WpJk6tGvUnr3zjizMlV98BNXsCFJH5l69Ku8/jBWvS5HJb1vB4nXz2Xs34bq34npDz9ZdwXhY7p0+++06r1kjhr65E5W734jpfcfmOp43x9ZVX/+Rspnfxizf8O0N0xZSZpf027vO7qigvd9ALgCrnEgfoa5lOLPF/Ti23W9/vuuXv99V6++bf9X8OC+PvGWDyH+2oZeLlt1vv77rl4vbyiu8eu1NFT/2bo6KujFtwzvmyHNK/ULVzvdD7sv4q/k/WezAoq/ddK/vcewGbKALk//Wj65Y511sNrt7o8xZsMv4f47rXo1pf1MU6j3k19bQapk6MW3N3TTW2BEn9yxZu/jb1X0aq9/K3rxeUkP3lH9yPsXwYRpb5iyAHBdjBWIW7nWWZUaDVVLxZN8vmzxCuRc5/TSLzaVWjqZKv/S0qZefk2SauqM+B+XlFPq9pq+POd6aW5NL77mej6GT3/7pj74SLr59uYU/6NrqP5/lyUV9OKYaQ6Td8n696ikDx5Ieq2iV26v6ctzk+rPy7b/Tqvey+XLf7Oh+GsVvfr7XaWWUt63R1TVowdWyszL7jSUuZxSP9xQXKYemaN9YYdpb5iyAHBdjBWIW0zdezOl/Hr5JJfPLGs9VdQYJzyvlU/3ivrggRR/6/boM6A6SZmIv1WfSM7yUHt3rBnccdt7Ti5y/35q3lNHhl789uXNe51Y/3pMq94LbWlNr9yeRM62j79KDdY7l1JcUufhh953ggnT3jBlAeCamEAgLpmmZBQqqne76nbrqhQkqaz7I0bi1aLnSnnvI1vSaPM343Jmlm7ppnvmLjQrJ/jdb1iPP/ykrPhbdb0y1uyynTLx/IZeHques0x2Nrzzq1SvH979TlZ//m1Vn3oLhXZ5+rfz0JSUkY6Kes/V5ne/U1R9b9J7+UXefzXFeqe1n02v3sl6QfHnJT3I68/ufeqoqvqdd6wLTh/WL2C7AeDqm0ggrkJFu5s5Wf9dziv3hpWLWqtPOpCIlpVnaejFH46eAzrMo1+l9N5vR+8vK2ViOm3rM83ZcOfivO+UJh4UXMz+bajzUJLK+uAnZXX6LlQs64OfpPTnPddrY7rI++8wU6l3WvvZtOod27xS/9X6Tn70E9cPh4GLeQEA520igXjhjcmeVs9tOlfKD3nsrtlB//n55E5W7z+Qbr69q9RYs4kauAjy1beti9I6vxox8OqlTNydQNtOM8nZ8Jxe8lzk9mrZvoDro3W9P1bwdfn6N/5aRa/2LlSs62X7QtBH/zbiaSWPC73/9kyj3mntZ9Oqd0qWNvXq2wVrZtzxfOHkokm/tBUAwNRNJBC/2hr65E5M7z8wdfPtyeUGu31paU2v2CtEdJrh/wO38ow9p8m/Eeutc/3oJ9bzsWcW7dlwvfbG5GfDJX1pbk0vOSt7TNCF79/nN/Ty7Zy+1AuQ5/Xlb961VrQYO2Xg4u+/w0yt3mntZ1Oqd1K+tLSpV9yrIP1iU6k5qSMp/lcveIsDAM7BhQzEL06OuHVDG2smsauXXCtQXD/ObPh0Lyz8tFnzvnSFzSv+V5I+uqdHI69ichr232GmtZ9Nq95p+eTX6+rI0E2DfQMAonAhA/GLwbmrpBHqzonVYlaxWEzZELdi/vSoqj//7PT/EE+r90vf3O07Rd47VW6nN9x823rud9HbafX26c2G/yhQakPgensa+nSvaN8oZ7R+GOYi9++X/6YgydQHP3PnFdt3Hvxo+DrtZ9V7mfbfYaZT77T2s2nVG0y4ehtW334npvcfnH5Mh6sXABDWWLe4d24VX6h01XfX4WpRsXxZxkZduwO3rIye1e6MKt1NDZvbdd/C3JfvrZmrKsbyKkuSDG3Ufe7YuVfUuz+xSngNXyEiQL0+nG0YHogFrfckqHuxHCTHOEC9Q/vB0M23d0dv79B6L2r/On3rfd3K4X35F3439Tm73ku3/557vdPaz6ZVr23UcTsq6b3C+uDdLH3rcwSoN0x7w5QdYLeFW9wDuGKYEZ+onDattRtDMHp3FPQPNjRivUEErDfkbHjgevs4/TAsiNGY9V7U/p1X6hd1vfya+y6dhnXxpm8QroD1jmKUeqfVv9Oud1r72aTrDSJsvYbizxesu7gODXw1Qr0AgLDGmhG/rILMiI+qUS3qzXxZpgoTrZ96LdRroV4L9VouW73hMSMO4GpiRnxCnAtMU3nrDqOFymT+06JeC/VaqNdCvZbLVi8AoN81DsTLyvdWYsmqNKFlWAyjoErdkzM/AdRroV4L9Vqo13LZ6g2kUVK29x3t5KoDwNVyjVNT3BeyDbkQCQAQjUZJ2dS63N/UIjUFwBVzLQNxAAAAIGrXODUFAAAAiA6BOAAAABABAnEAAAAgAgTiAAAAQASuZSDeKGXtJbEmv3whMFV9S7rZj2LVWwoAAFwC1zIQD6ehT+5k9d43Ynr3OyV96n27p6FPflu0ytmP9+5UTykfRtA2KGTZcD7dK+nP38n2tu/dbxT1ibdQCFZ9J/317ney+vNvJ9Vnlk9/e9LeP+953w2jqj+7xrbvMW4/H1VVv+Pu16z+/Ft+GQIAcNVd40C8oEq3q263q27XZw3xIyugffcbKb3/wFTH87bXJ3dSev9X5b5ynQd5/WGcIC1MG8KUDa2h+ndi+sNP1vXoo75VfcdQ1Qc/Wdejj1wvfWTq0a/y+sOdCc3wHpX0/q8m1d4pOSrpvUJeHzxwt9PUo1+l9K5fP8yvabe331ZU8L4PAAAujWsciJ/uk19bAa1k6MW3N3TTW8Btr6j3H0h6vqCXy129/vuuXi9XdPN5SR+t6/0RZzfDtCFM2bA+uZPSBx9J8dc29HK5bm3f77t6/feb+rK3cAhWfU5dXb1e3lBckh7cH2um3dJQ/Wfr6qigF98yvG+OLP6We/vtxy/W9CVvwaDmUoo/X9CLb5/U++rbdng9kX4AAAAX1eiBuJ2rWqxK1aKdc50tqaGGSvbz7CXOXf3y32wo/lpFr/5+V6mllPftPp/8W9kKgH+4qS/P2S/O5fTSD63AsvNeZaRZ8TBtCFM2lKOSPngg6bWKXrm9pi/PeU8djCqn1O21k/6SpLk1vfia6/kYPv3tm/rgI+nm25sT/VEyeTm99ItNpZZO+vVLS5t6+TVJqqlz5C4LAACuktEDcVvtnazyZfu0unlPd4pvat1+bpbfubwXQS6t6ZXbuQAznVU9eiDp+Vu66Q4qj6qq//qelSLy0cFoqSKB2xCybAifmvfUkaEXvz3920p/ulfUBw+k+Fu3x5ppd1JS4m/V9dKS900AAICLYexA3DRNGRt1dSsFSabKZVOFSlf1DUOSqYMPvX9xtmrRsyqE95Et6cLE90d1K8j+q5QdBNu52n15v5d3ZrPz0JSUkY6Keq/vwsqi6nvjjoKVe+7U+YeflBV/q65XvjnOrLudkvL8hl4eqx5/nV+lpnpxqWXIjzsAAHCljB2Iy9jQXfeVjsaGbuek+VTGXerKi0v2qiknudo336ro5QnmJ5+/hjoPJamsD35SVqfvwsqyPvhJasyVSAY9+lVK742YU69eSoqhF384Rt52UM7FpeNckOvjkzt5PdI5bQMAAIjM2IG4cSsv97yj9/kocpvOqhBDHrtrY3/GpHUe5Hurpji52i99Myc9vOCrdgQUf62iV3sXVtZ7PzAe/ds41wHMK/WLk4seX33bzqn/1YgBfi8l5a5SE59Jzuklz0War5bti2LHuCDX65M7Wb3/QLr59u4UtgEAAFwkYwfi195cylrpw7UKyEmutjOjnFH8MgdVz2/o5ds5fam3DfP68jfv6sXnJT2sT2w2+EtLa3rFXjml0wwf2Fr57J70kW/E9Ad7CcNHP7GejzPj7valuTW95KxwMraGPrkT0/sPTN18m9x2AACugwsZiF+qHHG9oPjzslJRvu1ZBeSoYq2T/Xy6F6xfLvOK/5Wkj+7p0SXNcZ+2T5s170sjaKj+nZQ9E97VS64VVAAAwNV1IQPxy2VeN1+xLkz94GdFfeIErEdV/fln6+pIuvlf/XN9nWUfo1zm8aw2fPlvrItwP/iZOw+6oU/uWMsDxl/JT2zbPu31maGbhn8welq9X/rm7uAa37/v6lU7jebm29Zzv4tBT6vXX0Of7hXtGwaN1l6LFYR/8JFhB+He9wEAwFX1zMOHDz/3vuiVTCa9L1nriKfWpY26dtfmpWpRsXxZhud5odLV5vRXvgulUcoqtZ5RpbupoU3bK+rdn5S9r554fkOv9m7k4gRT3kLW+tuv3/b7lKqKsbysTzC0Ufe5u2eYNoQp2xOgDadt2/MFvfwLv5v6BKj3lPYOXzklQL0+Pv1tVn/4lXlKoBug3qHtNXTz7d2R63XaNpTvuDns+gsVdS/aQQYAAM7EjPhEzCv1i7pefs29Qoq1asqrvkG4JOW0WZlUfvGogrTBf9vir1X0qm8QroD1ehknOfa+QbhGrDeIUep12jssCNeI9QIAgOti9BnxSyzQjPg5aFSLejNflqlCZG2ZVhuo1zKtei3MiAMAcJkxIx4B52LUVL4sU1KhMukA7WzTagP1WqZVLwAAuDqucSBeVr63EktWpQiWYTGMgir1aHPop9UG6rVMvN5GSdnefuvknwMAgMvoGqemuC+Q87+QDrhw7Iuk+y7vJDUFAIBL6VoG4gAAAEDUrnFqCgAAABAdAnEAAAAgAgTiAAAAQAQIxAEAAIAIEIgDAAAAESAQBwAAACJAIA4AAABEgEAcAAAAiACBOAAAABABAnEAAAAgAgTiAAAAQAQIxAEAAIAIEIgDAAAAESAQBwAAACJAIA4AAABEgEAcAAAAiACBOAAAABABAnEAAAAgAgTiAAAAQAQIxAEAAIAIEIgDAAAAESAQBwAAACJAIA4AAABEgEAcAAAAiACBOAAAABABAnEAAAAgApEE4o1SVrFYTNli1fsWAAAAcC1MJxCvFhWLxeQfZzdUuWdKkszyffkWueQa1aKy2ZhisZhi2ZIa/e+q1Hsvq2K1/10AAABcD9MJxE81r/wtQ5JkFN5Qzvv2ZVctKpUvy7R+a5zONFXOp4b8YAEAAMBVFkEgLs2v7arb7Wp388qF4areL0uSCht1dbtddXfXNN9XYl5ru111u13VNwqSpPJ9InEAAIDrJpJA/MozNnR7rT/89jO/dlsb1skBAAAAXDMTCMQbqpZcOdGxmGJ5a1a4X1VF533ncVZORqOqUtG6sNN6ZFUskVMNAACAy2/MQLyhajGl/HrAnOgwGiVlU3mtl90VmyqvvylicQAAAFx24wXi1TvKl61UjErdynvudruqV6zc5345bdrvd7sV+ZU40VDpzXWZkoxCRfXe39VV2ch4CwdWLXpm5L2PgRVOQmqUZKeIh1N+RyVWTwEAALhWxgjEGyq9U5ZUUGV3TTlXSvTZ2dFnaFR0z5RUqGh3M+eqb165tU0FSL8+V8666LHUuspGQRt3vRdoDjOvtbsbKhim1vMpxWIxZZnuBwAAuBbGCMRtRloveF8b14cHMiUV3pjsqiq5zZNZe9/HwAon5yHlfQEAAADXwBiB+Ic6mHReuK1Rr3lfutCc5RjrlQ0ZZlnrd864CNWleievsmlow07t2b1o0/0AAACYijEC8ReUNiSZB/rQ846zlvao5lNWHnitPtk0jWnniM/n1vSjgqRaPWA9DdVrkgo/unDpNgAAAJiuMQLxeVnxclnvOHnNjapK2Zh1Aec4cm+oIMlcTylbqrqCWmupRNKoAQAAcNmNEYhLudsbMuyA2bpYMa91UzIKBQ3cp6ZadM0+51WWpHK+91r/RYo5bdorr5jreaV6f5dSfn30tJWLmSMOAACA62isQFzza9qtbMhwom7DUKFS1+7ttKfgCHKbqlc2VOhVLkmGCht3SeMAAADApffMw4cPP/e+6JVMJr0vYYhqMaZ8uaBKd1Nnr/lSVTGWV7lQUXfz7NIAAAC4OsabEccQZb3Tl9vup6Fq6R0rRQcAAADXDoH4hJ3kzdu57QMrsTRUyjr57qYkQxu3mQ0HAAC4bgjEJ21+TXfdefOnMQxtVMh5BwAAuI7IEQcAAAAiwIw4AAAAEAECcQAAACACBOIAAABABK5tIN4oZa07ehar3rcAAACAqZtgIP5Ih6WfazP2Lf3U9fiXCxnnNlS5Z0qSzPJ9TbKJh6Uf6Kexb2mz+Ds98b4JAAAA2CYWiB8Wv6d767t67H3jQppX/pa1vqBReCPAHTCD+pMO1j+WJD0u/w8dnn5HHwAAAFxjk1m+sPE7baZ+rceSbmx8X6trX9Nz3jLXxGHpB7q3/rFuFL6t1c2/u7b9AAAAgNNNJhCv/lw/ze9K+opeq/93ZblBDQAAAHCqiaWmBNL4k3aLP+jLI9/M/nwwhaP6c+v97O/0RI90WLTyrsfPva6qGIsp5n5M4mJNp719j5/r0FtO0mHR3o7SIz2punPqf6B/KT3yFg/Muvg0q1KjoWqpqKyzfdmiSt7+dakWrb+bRDcAAAAguNED8cbvToLI/K794sd6kHIFo1lX0Nz4nTZT/6QH5Y/78sgfm7u6l/qB/0WdZlN/LH5P98pW3rUkPS7/Wr8s/qmv2GX0eP17+mXenVP/sWrr3/Pvh8BM3Xszpfx6WdalqJLMstZTxSEXpFZ1v2xKMlV+p6RT4nUAAABM2OiBeCiPtPumlUMuZXWr/hv9uPsb/bj+fWUkKwh9x2+me1e1spSp/LN+3P2N/mHjK9bL5X3f2eaz5bTZ7arb7arbrajgfXtUuX+0tsfdxiCMb9t94fSDVLs/3o8M05SMQkX1blfdbl2VgiSVdd83Es/pjYIhyVDhR3mRUQQAAHB+Rg/E5/9ORTv4/HEla7/4Fb3mBNnd3+jHu/bFio0/qWZP0d7Y+HstOBHf/Nf0987fmv6rjNzY+Gf9fe6mJOm5lJOr3tQTn7KXS1a3dv/O7ouvKT2pXwWFinY3c3ZQPa/cG1bFtbp/h+U2d9Xt7mozRxgOAABwnkYPxMP4sGnPhn9FmbwVVPe8kNQNSdLHevxh/1sD5Xszz1fgglAjOZUVVQpvTG4xRgAAAEzP+QTiAAAAAPqcTyB+yqz3k8r/6M2W33ih/z0AAADgqjqfQHz+a8pYN7JULe9arrDxJ/3RvhOljP/zJHcc54blCwEAAKJxPoG4bir7o6w9K76re84Sh6l/Uk2yLvK8ew53oawWXWuI51WWpHK+91r2tAW3T/GkdLLO+S+dHxba1T2/ZRwvFJYvBAAAiMo5BeLWhZbF+veVMdzL+31FNwrf1i3uxhkRli8EAACIymRucQ8AAAAglPObEQcAAADQQyAOAAAARIBAHAAAAIgAgTgAAAAQAQJxAAAAIAIE4gAAAEAECMQBAACACBCIB9AoZa07b0Z4H/iL0IaLgH7wqqqYLeq03oi2z85uHwAA1xWBuCRVi4rFYvKPUxqq3DMlSWb5/sQCCic4OnlkVRp6j/mAbWiUlO2rM6aY/0ZdXBGMxeXVUCmbV9mUNO6+My0NSWZZ+RjBOAAAXgTiZ5pX/pYhSTIKbyjnfftcXIQ2XARXtx8apayyIYPVajGlddPQRn1TuXnvu45p9FlDn/y2qPe+EdO79uO9O1V96i0mSfM5bdY3ZKisvP+vqzE09MmdrNWO75T8Px8AgAuMQDyA+bVddbtd7W5OJow5UVCl21W321W3u6u1ocFUwDbMr2m3V19FBe/7V0CgfriEPjwwZc1bB1QtKl+WjI27p+43mkKffXInpfd/VVbH9VrnQV5/GBYMz6/p7oYhlfNDznSEdGQF4O9+I6X3H5h97QAA4DIhEAcunYZK75QlY0N3z4rCJ22vqPcfSHq+oJfLXb3++65eL1d083lJH63r/d/658jMr/1IBUnld0rDs2gcp6YnSZ/82grAJUMvvr2hm94CAABcEtcwEG+oWioqm3XlUefL3kLWRWZh860bVZWK7tzvrIrDE78DGKENl8plGgtZ7e2r0/3w5vjb2+Z6P1us9gehdsAZi8VkbXZZeU+9Wb82V+9o3ZSMW3kND8NH6LMAPvm3shUA/3BTX56zX5zL6aUfbiguqfNexX9WXDnd3jAkc113xmzGl/9mQ/HXKnr197tKLaW8bwMAcGlcs0C8oWoxpfx6WWaoPIAAGiVlU3mtl90Vmyqvv3nKRZjX2WUbi4ZK2ZTyfXUO19u23iumzHJeqWyAGeEzVO9bwfCt/PAwfDqqevRA0vO3dNMJwiXpqKr6r+9ZKSIfHQxNFZnP35IhqXx/zEh8aU2v3M7pS97XAQC4ZK5XIF69Y808Ghuq1J1c6q7qFb9s6pw2A+dbN1R6c12mJKNQUb33d3VVNjLewiGEacN0VIvemV/PY9TA8rKNhT0LLWPjpM6605aCKu4cfzt/W97PL3hmhHObve22Ntt9zYD12B1IPWmoXpNk3NLpcXiYPgvoqG4F2X+VsoNgO1e7kNcHD5yfHDV1jtx/5DKf1y1DUq0+2j4DAMAVc40CcTuvVgVVdtf6Vpk4NZ4JolHRPdMKvHY3c6765pVb2zzzYrrr5/KNRaNekyQVfrR2Uue8nW6hmuquyNKasS6o4v38TTtPeqwZ4Q91YErKpMbvqxHFJXvVlJNc7ZtvVfTyW9bqLMPNK5WRZB7oQ/fL3mU37fSkcr7/R98EMmsAALhQrlEgbjPSesH72rg+PJApqfDGZFaluEhym/0ztAOPXVdgGtYlGov5lDWbXr7vOgPQqOrOuikpo1SvE+wZa59871gsr7Iu/4xw50G+t2qKk6v90jdz0sNgaTsAAMByjQJxeyZxCpzZUgR1Cccid1sbhqTyulJOYJ2yA+uJrc99wc2lFLf/GX9tQy+Xu65c7YY6DyUpo7g7fzyIvmU3u+ra6UmFSv+PvgmtvggAwIVxjQLxF5Q2fE6L91IJRufMltbc+QlXxHRyxC/hWDgrlRju9AtDhY26un0Rop1+4c4l9z6GnkXoT3HxZ/ddJLPqLyj+vKxUlG+vnayaIklHFT36SNLz6V6wPsjJb5/CmRAAAC6haxSI2wGSynrHWTqjUVUp6ywdN4bcGypIMtdTypbcS9RZS9iNvlLHVXXRxqLRW+owOyQR2cn7/tHdu6r3Li7d1aZP0vkLaeuizDeLVTV8P2/QC9YvE92reJY4HODkWd9T5fSCI3GWZ/Tvh3ndfMVq5wc/K+oT56LMo6r+/LN1dSTd/K9rw1czcfL3I8xvBwDgIrlGgbiUu70hww7SnNSCdVMyCgUNXGbmWuO5l9tbzvde61/fOadN+3S6uZ4/SV2IpZRfHyNVIlQbpmNaOeIXaiwaFd2zlyU0y/d9bzNvBcpl5VMppVL9ZwWy2aKqribMr93VhiFruUJP2diQiw6dmfz+Nnu3zZJ7o2AH7YPv9YTqM0dV93v98I7vj5YvffOuXnxe0kdlvV+wb3FfyFuz4a9V9NKS9y9ONCr3JpO/v1e0PvcbMb37jbweybqZ0B+c14bd4RMAgAvmWgXiml/TbmVDvewCw1ChUtfu7bSn4Ahym6pXNlQYSF04+xbk19JFGov5vG4VrLLGkHxv586QspraxzTLyqeKrgB+Xmu71nKFAz8qhsltql4pDNTty85XN9fv+P5oGN3Jj5jh5pX6RV0vv9bftzffqujV234952iocs+UjA2dWkxWX5ATDgC4Dp55+PDh594XvZLJpPcljKlRyiq1nlGlu+kb+I2vqmIsr3Kh4slhRnjWzXzWzYIq9c2+5RattJaU1svWxYXn1tXVomL5soyNus9a46NrVIt6M1+WqcJE901rfzfPt48AALjgrteMODCSk1VevJdINhof6qAsSYbS53kFYm5TlYJkjnW30BPORbmpvHU30EJlckG4GiW9uW5KhQpBOAAALgTikXKvNZ0dP6DquzGKnReMCbBXKlFZ6yk7p91+pOwlDI1haS9TlNusqCBT66n+HPVxGEZBlfoEZ60bVRVT6zKNDdUnVikAAFcDgThwJlfOtyeH2zAK2qhMNj0kuJw2uxUVDI19S1LnotzdXW/qzZjmJRnWHVQnWS0AAFcBOeIAAABABJgRBwAAACJAIA4AAABEgEAcAAAAiACBOAAAABABAnEAAAAgAgTiAAAAQAQIxAEAAIAIEIgDAAAAESAQBwAAACJAIA4AAABEgEAcAAAAiACBOAAAABABAnEAAAAgAgTiAAAAQAQIxAEAAIAIEIgDAAAAESAQBwAAACJAIA4AAABEgEAcAAAAiACBOAAAABABAnEAAAAgAgTiAAAAQAQIxAEAAIAIEIgDAAAAESAQBwAAACJAIA4AAABEgEAcAAAAiMA1C8SrKsZiirkfxaq30KXWKGX7ty+WVanhLSWpUVL2ivcFAADARXbNAvHwGqWssrGiCFEBAAAwSdcsEM9ps9tVt9tVt1tRwfu2jw8PTJneFy+8giq97dzV2rz3fUnza9oN2RcAAACYnGsWiAMAAAAXw5iBuJVznS01JDVUKp7kJ2eLJQ2mJjdULRVduclZZYtVn3LyKWvVWfUUdnKiB9Kbq0Xrb3wTpM9g/20sFlO+LEll5T351CPVCwAAANjGDMRtBxUVYymtl0+SOMzyulKe6LhaTCm/Xnalepgyy3mlsoNB+2BZq878HW/EDQAAAFw+EwnEzfK6yjK0UalbOcd1O+e4fP/kIsdq0ZpdLlRU7+Um11UpGJK5rv74uqr7ZUmFDVfZruqVDRXS7nJTktvsfWalIE/OtfXY9U28Plu16FmpxPvw+VECAACAq2cigbgVqO5qLWcHp/M5veG5+q9qRdaqbOZ0EsLOK7f5IxUkle/7zHSX76niykWZz61pcy3XVwQAAAC4jCYTiBfekDc8zm121e1u2q83VK/JN9c6FsurLEm1umsmOKfNSkGGTK3nU4rFsiqWBvPDLyOrX0557K65fqgAAADgqppMID4NuU3tdutWOophqry+rnwqpuzAVZkAAADA5XNOgfi8UhlJRn/O99kzwfNWOspuV91uXRuGZJbf8b9TpEf1fs370hhqqgf4zCDIEQcAAIDOLxCXXkhbF2W+WayqcVak2SipWCyp2ldwXvlbhiRTBx+6Xk1lJEnl+04A21C1mFXetYLLOF5IW595rzJsmUUAAAAgvHMLxOfX7toz2nmlUoMzwd6Mk1p5XflUqq9Mat2UVNAb7oT03Bv2Ci3rSsViisVSVhBuGK5CNtf64L3c9HK+95rf2uBOoG+u5+36h5cNghxxAAAA6DwDcWlea7vWcoU+IXK/+TXdrRQ8sbQho1BRvXcBqCOnzfqGCr2yhgobFdV3rdVYxpbbVH2gLQAAAMB4nnn48OHn3he9ksmk9yVcUI1SVqn1jCoDP1hOU1Uxlle5UFF3M/hfAQAAYHTnOCMOAAAAwEEgfiW512vP+q8y0ygp682XBwAAwLkhEAcAAAAiQI44AAAAEAFmxAEAAIAIEIgDAAAAESAQBwAAACJAIA4AAABEgEAcAAAAiACBOAAAABABAnEAAAAgAgTiAAAAQAQIxAEAAIAIEIgDAAAAESAQBwAAACJAIA4AAABEgEAcAAAAiACBOAAAABABAnEAAAAgAgTiAAAAQAQIxAEAAIAIEIgDAAAAESAQBwAAACJAIA4AAABEgEAcAAAAiACBOAAAABABAnEAAAAgAgTiAAAAQAQIxAEAAIAIEIgDAAAAEbjmgXhDpWxMsVhWpYb3PQAAAGB6JhiIP9Jh6efajH1LP3U9/qXqLXeBNCq6Z0qSqXuVyUTih6Uf6Kexb2mz+Ds98b4JAAAA2CYWiB8Wv6d767t67H3jIpvP65YhSYZu5ee9747gTzpY/1iS9Lj8P3Q4mdgeAAAAV9AzDx8+/Nz7olcymfS+1K/xO22mfq3Hkm5sfF+ra1/Tc94y18Rh6Qe6t/6xbhS+rdXNv7u2/QAAAIDTTSYQr/5cP83vSvqKXqv/d2UnMbkMAAAAXGETS00JpPEn7RZ/0JdHvpn9+WAKR/Xn1vvZ3+mJHumwaOVdj517XS0qFov5Porj5LI77e17/FyH3nKSDov2dpQe6UnVnVP/A/1L6ZG3eDCNkrL2NlSLWWubsiU11FDJfp4dsoFW+ex42w8AAIDQRg/EG787CSLzu/aLH+tByhWMZl1Bc+N32kz9kx6UP+7LI39s7upe6gf+F3WaTf2x+D3dK1t515L0uPxr/bL4p75il9Hj9e/pl3l3Tv3Hqq1/z78fAqq9k1W+bFpPzHu6U3xT6/Zzs/yOz8owVd0vm5JMld8paeBtAAAATM3ogXgoj7T7ppVDLmV1q/4b/bj7G/24/n1lJCsIfcdvpntXtbKUqfyzftz9jf5h4yvWy+V939nmM+U21e12+x71DcNbKrzcP1rb425jEMa37b5w+kGq3R/9R4ZpmjI26upWClZwXTZVqDjbaOrgQ+9f5PRGwZBkqPCjvMgoAgAAOD+jB+Lzf6eiHXz+uJK1X/yKXnOC7O5v9ONd+2LFxp9Usydqb2z8vRaciG/+a/p7529N/1VGbmz8s/4+d1OS9FzKyVVv6olP2cslq1u7f2f3xdeULnjfH4GxobtrrnDa2NDtnDSfcsL8QbnNXXW7u9rMEYYDAACcp9ED8TA+bNqz4V9RJm8F1T0vJHVDkvSxHg/M2HrK92aer8AFoUZy4iuqGLf6Z7W9zwEAAHBxnE8gDgAAAKDP+QTip8x6P6n8j95s+Y0X+t8DAAAArqrzCcTnv6aMfU1kLe9arrDxJ/3RvhOljP/zJHcc54blCwEAAKJxPoG4bir7o6w9K76re84Sh6l/Uk2yLvK8e3nvQvmkdLLO+S+dHxba1T2/ZRwvFJYvBAAAiMo5BeLWhZbF+veVMdzL+31FNwrf1i3uxhkRli8EAACIymRucX+JNUpZpdaljfqu3Cv/AQAAANN0fjPikWuoVCyq2nAlYDSqurNuSsooRRAOAACAc3SNAnFJtbLyqZRisZj1SOVVlmRs3FbOWxYAAACYomsUiM9r7W5FBcN1S3vDUKFS1y45KQAAADhn1z5HHAAAAIjCNZoRBwAAAC4OAnEAAAAgAgTiAAAAQAQIxIGRVVXMFlX1vjyiRimrWCymbHFSNV52Qfu3oVI2plgsq9K53h42aPsUsiwA4LogEL/Qqio6Sy06D4K06asWFYvFdHpXN1TK5lU2JQUN/k6tt6HKPVOSZJbvE7CF6d9GRVbXmbpXOavwBDUkmWXlYwEC7DBlAQDXBoH4FdMoZZXlP/upqxZTWjcNbdQ3lZvI6pfzyt+yltY0Cm9cqXXtR9knQ/XvfF5W1xm6lT+r8Fka+uS3Rb33jZjetR/v3anqU28xSZrPabO+IUNl5f1/XZ0IUxYAcG0QiF9oOW12u+p2u+p2Kyp43/bx4YEpa14VU1MtKl+WjI27muQS9PNru+p2u9rdvEph+Aj7ZOj+ndfablfd7m7A8sN9ciel939VVsf1WudBXn/4TmlIML6muxuGVM4POdPhEqYsAOBaIBAHQmmo9E5ZMjZ0d9yoDz4i7N+9ot5/IOn5gl4ud/X677t6vVzRzeclfbSu93/rn/Yyv/YjFSSV3ymdmUUTpiwA4Oq7ZoG4lXOdLTWs//CL1sVx1gVyfv8xNlQtFZXt5WhnlS1WfcrJp6xVZ9VT2Lkgb2BGzM4fttoWkv23sVhM+bIklZX35JaPVK+jUVWpmO3ftmxxyLZZF8w13H2RLQ5cRBemrMXbv/5jcVKvp/xZ9WZd/WV1or/qHa2bknErr9PDxKD1jnAdgD0eJ3+TVdF/40JoqNpXp/vhvQgywFiMuk8G6V9X3d7HWV13mk/+rSzJ0Is/3NSX5+wX53J66YcbikvqvFfxnxVXTrc3DMlc150zPz9MWQDAVXfNAnHbQUXFWErr5ZMT5mZ5XSnP/+LVYkr59bLrtLops5xXKjsYtA+WterMX/r/bRsqvZnXerk/vcA0y8qn/PN+770ZU8rdF2ZZ6ylvMGcJWnawf4ePhWTq3pue8mZZ6wPtbZzUGzB3onrfCtZOz0UOX29gjZKyKWs8Tpgqr7850GfBNVTKppTvq3O4cGMRTrD+nYaqHj2Q9Pwt3XSCcEk6qqr+63tWqspHB30pK27z+VsyJJXv+x0R/cKUBQBcbdcyEDfL6yrL0EalbuVf1+38a/dqFXaeqgoV1Xt52nVVCn6zWVXdL0sqbLjKdlWvbKiQdpebktxm7zMrBUkqqOJqR7fb1e44p/kzhZO+6vWDJJU1GEuYMk3J6PVbXZUNY8iKFgHLhhoLy0C9fu2t3rHqNTZUqbvHbVg2fkP1miTjlk6NE0PVG+Y6gIZKb67LlHvbnH7LeAsHZ89Cy3Dtv84xoYIq7tzroGMx0j4ZsH9ddff6dsO60HVkR3UryP6rlL4kSWrokztZvVvI64MHzk+OmjpH7j9ycS4YrdXP/jESpiwA4Eq7loF4L7hwlmOYz+kNTwRkzcwVVNnMuU6Rzyu3aed4DkagUvmeKq58jfncmjbXLvuFd/Na29w86Sv7tZy3w1yMjbp2e/02r5ydF2veqwwEHkHKjjQWhUp/vXZ7a3WnVjsXWQVVdtf6VuYYHgN+qANTUiZ1SplR6g3IWaavb9tk99vmyBcqNuo1SVLhR2sndc7bKRSqqddlo45FYEH6d7rikr1qSkrvPzAlGbr5VkUvv3VWoD+vVEaSeaAPvW8NCFMWAHCVXc9A3Gd5uNxmV93upv26PTPnk9cai+VVlnc2K6fNSkGGTK3nU3bO7mB++KXVqKqY9eQP++Y7WzIpbxj1gtJD4pizy4YdC0vhDe8ID2Gk9YL3tUmYRr0fHsgMs20Bzaes2fTyfVdqSaOqO+umpIxOhmi0sbhMOg/yvVVT4q9V9Orvd/XSN3PSw2BpOwAAhHE9A/FpyG1qt1u30lEMU+X1deVTV+AuiXZOcnniyc5Rs2dfJ25a9Z7MXE9c7rY2DEnldaWcwDplB9Y+P1qvpLmU4vY/469t6OVyV6/czvXSVDoPJSmjuDt/HACAMRGI+7JPHbtzZr2PXddpfNffzefWtLlr5c1uGJJZfifQRXTV+5MMsvrTCcZRvWPnJG+4c4K76vrmOw/hpFQESTkYKDvqWJzFnnn3SQ+w0i/82H9z6qzvKPUG48xcn6TXTIizUonhPhVhqLBRV7dvTfNxxiLIPhmkf6flBcWfl5WK8u21k1VTJOmookcfSXo+3QvWBzn57UHOhIQpCwC4ygjEh3ghbV189maxqsZZUUGjpGKxpGpfQedOiaYOXBHZYBqAtWxc0BUrzvKCFQXqXmVwab9BJ0s4njVzn0m90AuwGtWSiu+cFlS6PrlRVdG+wNA/peLssqHGIjA7qFRZ7zi/lBpVlbLOcnt+nNzeexq47rRnlHoDyr1h5c+vp5QtucfXWk7Q/wff2WPs5H3/6O5d1XsXl+5q0yfpfJSxCL5PBunf0TnLM/r3w7xuvmK184OfFfWJc1HmUVV//tm6OpJu/tc1e4bcx8APyFOEKQsAuNoePnz4+VmPbrd7RR6VzwvS5ypUfN7zPuqfbxj6XPJ/FCqusvWNzw2fMtaj8HnFrw3eh2F8LulzY6N+UrZSGCznevSVPeNvfMv2tdvbTutR37DaNezh7odTy3r6PEzZMGPh1Ns3Pt2TfunrhyHjZhQKnxt+dQyrx/sIU++Q8er9jfdzhpY3Pt+on9WW8GNsGIXPK331Bh+Ls9o8sG2usr7vnfIYOu69h/u4G9JX3frnfynq8/tf93n8X959sv9x9uePVpYHDx48eFztBzPiQ81rbddalm3IdYYn5td0t1JQ35l9GfYSc84FoI6cNusbKvTKGipsVFTftVadGFtuU/WBtgwxn9ctuyHGkFzg+bVd1TcKrj6wt6uycXa/SJJhb1+Q27YPLRtiLMKYX9NuZeOkrwxDhUpdu7dPWXPSzqc21+/4rqEujVhvULlN+zoEbxrJkNvBBxrjk33Pu98Mrhc/wliE2SeD9O9IrAuqTzev1C/qevm1/r69+VZFr9726zlHQ5V7pmRs6NRiUsiyAICr7pmHDx9+7n3RK5lMel8CBjRKWaXWTRUqXQ3E0h5hyl441aJi+bK19KJv9HuZWDfzWTcLqtQ3+5ZbtNJaUlov63zHaYT+tfYnaaPuWvPco1Et6s18WaYKqgz8QB5dmH05TFkAwNXHjDgQVm5TlYJkjnU3y4viZJUX7yWSjcaHOihLkqH0eV5VeGr/NlQqFvuvx/BdavFEtWitBJPKW3cDLVQmF4SrUdKb66ZUqJwdWIcpCwC4FgjEgRHkNisqyNR6qnjJ14t31m0vaz2V6lsbPGUvYWgMS3uZolP7t1ZW3t3WXjtvnxpgG0ZBlfoEZ6IbVRVT6zKNDZ90Ko8wZQEA1waBODCSnDa7FSvX/5yD1Mly5Xx7crgNo6CNSvD0kMka1r/zWrtb6c+Rd3Lwh7TTullXV7u73tSbMc1LMqw7qJ5ZbZiyAIBrgxxxAAAAIALMiAMAAAARIBAHAAAAIkAgDgAAAESAQBwAAACIAIE4AAAAEAECcQAAACACBOIAAABABAjEAQAAgAgQiAMAAAARIBAHAAAAIkAgDgAAAESAQBwAAACIAIE4AAAAEAECcQAAACACBOIAAABABAjEAQAAgAgQiAMAAAARIBAHAAAAIkAgDgAAAESAQBwAAACIAIE4AAAAEAECcQAAACACBOIAAABABAjEAQAAgAgQiAMAAAARIBAHAAAAInDhA/EnpR/op7FvabP4J+9bEaiqmC2q6n0ZLvQRAABAEBc8EH+kw3sfS5Iel/d16H37XDVUyuZVNiU1vO9dNlUVYzHF3I/ihELnhiSzrHyMYBwAAOA0FzwQv6mFW1+RJN0oLGrB+/aInpR+oM3Yz0MF9tViSuumoY36pnLz3nevvkYpq2yQ4Ho+p836hgyVlZ9UcA8AAHAFXfBAXHpu7b/rx93fqLj5Ne9bI3ty8LEee188TbWofFkyNu5q7UoE4TltdrvqdrvqdisqeN/28eGBKdP74jDza7q7YUjlvIjFAQAA/F34QDx6DZXeKUvGhu5ejSj8XMyv/UgFSeV3Spc/kwcAAGAKxgrErQspf6DdhvSk9HNtxr6ln8a+pZ9mf67dgejrT/qX2Le0WXok6ZF2i9ZFmNaFmL/TE5+yzvs/jX1LPx1yseZJGx7p8LQ2VH/eq+teWZJ2dc/zGVbbPKp3tG5Kxq28hofhVs51ttSwAvditpd7nS36BaINVUtFZXs52llli1WfcvIpa9VZ9RRulKzPHJiBrhatvyn5134q+29jsZjyZUkqK+/JLR9eb063NwzJXNcdb5sAAAAwXiDuqL35Lf1yffck3cPc1YOUFaAPOPiT/iX2PT0oWxdhStLj8q/1yyGBdjAfq/bm93RvoA3h8sD9VO+XJRm6lR8ehvccVFSMpbRePkniMMvrSnmi42oxpfx62ZXqYcos55XKDgbtg2WtOvOXILqdz9+SIal8/+K3FQAA4LxNIBD/WI9N6Ubh+/qH7m/04+4/69bGV6zguDI4w/y4/GvV9BW9Vvln/bj7G/24/n1lJKlvVZSv6e+7v7He79rvn2GgDQVJ2tWBEwPm/tGu7zf2e1nd6n2G9Siu3eyrU2qoXpNk3FKQONwsr6ssQxuVupV/Xbfzr8v3Ty5ytPPNVaio3svTrqtS8Js9rup+WVJhw1W2q3plQ4W0u9yU5DZ7n1kpSFJBFVc7ut2udk9L15nP65YhqVYf+IEBAABw3U0gEJdubPyziptf03OStdLJ2qoykh7f+5Mn5UR2APzflc3ZQe/815QOcrXgWQrf72/DG1lJ0uP64I+B4D7UgSkpkzolLcWtoEp3V2vOsirzOb3h2TZrhr2gymbOVee8cpt2TrXf7HH5niquXJT53Jo213J9RS6meaUykswDfeh9CwAA4JqbTCCe8s4kz+qG4XnJ4bMM4cLmb/Tj7j8OvB5G5o3JraoyssIb8obHuc2uut1N+3V7ht0n1zoWy6ss7+xxTpuVggyZWs+nFItlVSwN5ocDAADg8plIII4pym1qt1u30lEMU+X1deVTMWUHrsoEAADAZTKdQLzxJ9VMSZmbdqrIRdTUkzNnll9QeqI5znaqhtGf89332F3zSYOZt9JRdq188g1DMsvvaOiCJS7V+zXvS2OoqR7gM084OfZpveB9CwAA4JqbUCDuysNu/En/8uav9fiipIv4eC7tXEzql8Pu5uQ431MlVAA63Atp66LMN4tVNc6qs1FSsVhSta/gvPK3DEmmDlyJ1/Mp65LW8n1n5ZWGqsWs8q4VXMbxQtr6zHuVYcss+mhUdC9Ujj0AAMD1MZFAvJb/3sl63Kl/smbDC9/X33sTpoNyrfn909g/yUqr/qfT1/sO4blUUpL0eP2f9Msz1hHPvVGwA9DA4eep5tfu2jPaeaVS3jzxwXXAa+V15VOpvjKpdVNSQW+4+zf3hr1Cy7pSsZhisZQVhBs+yfqu9cF7uenl/KlrgzuBvrmet+sfXtbRqNyTKanQ11AAAABoUoF4H+Mrymx8X/8wwVvST1zuH/UPlezwC0rdcretwHn9zskShGOZ19qutVzhmR8/v6a7lYInljZkFCqq9y4AdeS0Wd9QoVfWUGGjovqutRrL2HKbqg+05TQNVe6ZkrGh28ThAAAAA555+PDh594XvZJJawbZ60npB/rl+sfKVH4z+uz3ZVAtKpYvy9ion75uNnoapaxS66YKla42r/K+AQAAMKLJz4hfRblNVQqSuf5moAskr71GSW+um1KhQhAOAAAwBIF4QLnNigoytZ4qso73aRpVFVPrMo0N1YnCAQAAhiIQDyynzW7FysEmO2W4eUlGQRXfZRgBAADgGCtHHAAAAMBomBEHAAAAIkAgDgAAAESAQBwAAACIAIE4AAAAEAECcQAAACACBOIAAABABAjEAQAAgAgQiAMAAAARIBAHAAAAIkAgDgAAAESAQBwAAACIAIE4AAAAEAECcQAAACACBOIAAABABAjEAQAAgAgQiAMAAAARIBAHAAAAIkAgDgAAAESAQBwAAACIAIE4AAAAEAECcQAAACACBOIAAABABAjEAQAAgAgQiAMAAAARIBAHAAAAIkAgDgAAAESAQBwAAACIAIE4AAAAEAECcQAAACACBOIAAABABAjEAQAAgAgQiAMAAAARIBAHAAAAIkAgDgAAAESAQBwAAACIAIE4AAAAEAECcQAAACACBOIAAABABAjEAQAAgAgQiAMAAAARIBAHAAAAIkAgDgAAAESAQBwAAACIAIE4AAAAEAECcQAAACACBOIAAABABJ55+PDh594XvZLJpPel89M51P5eTc22940wEkok01panFXc+xYAAAAQgYs9I97a19b2uEG4JLXVbpra3jlUx/sWAAAAEIELPCPe0eHOtmptSUlDK+kZb4HgjlvaM2uyqlrV4qy3AAAAAHC+Lu6MeKdlz4QnZSzOKh6Pj/6YXdBSJiFJah61vJ80dZ3DHW1tbWln//w/G7gKOIYAAFfRxQ3Er4yOWnZuTbt5pIsdRnR0uG8FPFtbW9ra2VeLXJ5rqqV9Zz9wHpEFwZfpGAIAILiJpKZ0Dne03UxqZXlBcUmt/S2Zx5ne85F0DrWzXVNbSRmrixo3m6RzuKPtWltKGlodJTel157TJJRZWdaCZ6Odz04kDS2P8tnnwpUK1GcS/d9Ra39PB812r/8SiaTSS2nNxkfeQy6nTkuHBwdquvsimVE6vaDZC9UVLe1vmWq6Xxr12JmAoMdQ53BHe7UZpcfeZwEAmL6JzIgft9vSTNwOujvqHMv1PCKdQ+3Ys3hRT+rGF5a1urp6agAROScVKJHRyuqqVldXZGXzHKszVge2tL+1LdMVeEpSu92UuX1wvWY3W/va2TZV8/ZFsybz4KL1xKwWV1e1urqq1VVDp/8Un76gx9Bxu79vAQC4yCYQiFuBdyLhXEx5rHbU/xO6Z6+Px4oiT8QXtNwLTFa1alihSdJwvbY6OBt+aRxbAUwy7ZzFiGs2aeXVj6O1b82qJpKGHeDbjxVDmQnUf3m0tG821Xb6YuWkL1aMjK5VVwAAAGm81BSfU9d+Rj2dPWpqijsIT5ykx4ydmuLV2teW2TxlFRaf/vH7bLu9M8aq5o52ZDbbdrtn1drfU63pdzq+o9bhgQ5qVmA3kXXSnX5z2thpaX/bVNPVh6No7W/JbPqn7HhZYyRlVpY129rXnrN9iaQyS4uDf++X5pFIKr206J/mYZev9dbDTCiZWdLiYMUT79/w+9+wdB7XtoXcd0L3b4+9L5/a9iB9dpL+NHDcOPtf3/4W8Biyj8XTJDIrWl6ID/mcE6ftr639HZlNKWksDznmAQAIZwIz4uelo07rjDSTIUH4ZXB8YAdSktRu6sAOpKynBzp0bXhrf1tmL+DRZNZJjy8onZTUPNDO/o52tk01E0kZE+nDtmoHZ4ydS3NvS9vu7Ws3Vdve6esDqaPDPZ80j3ZT5vb+YMpL57CXFnKirWZtz1PvNPrXudgwoUw6SARnBaz+6Tzefgi37yhw/4YTrM/iWli20lyapnuMOjrcq6mthDJLk9jfThGftc4+tJs+FyK3dNSUlEwPBOHWe21rnzkYdT8AAKBf7Lvf/e5/877olUj4nTef0Vw6rXQ6oc7BkRLGqr6+lFY6+axajce64TyfG3H978+e6KPGYz1VQsn0nJ45/KO2/5//rUaro8T8nAZqPSMI/+zJR2o8fiolkqO3ya3T0sHRsRLJtPyrc/rnpI+O/T7b3s7206dKZFb0+vxnOjh6rOPjp0oaqzL+Y0uNx2194Yb9Oa19/ev/OrbWVv/6kr6aTiudTirReaKjx019lhjWnrPNPNNR6+ix2sdPdSOzoq8vPj/YzyHNzCXUaR3p+PGRGgctdZ79ohLPzegL3oK9MWrr6VMrfeOVry/pq+mkEs8+0dHjtp7+h6Tmn3P+8jM9efKZbvy1ob9d+qrdz0klOg0dHR/rmb5+6Ojwj6aaffXa5Z891mczc+pVO5X+faLGvx/pOPGCvvqfn/PddrfO4R9lNp9KiYyMV/5WS191teG4rcefJaz9KOS+E65/+1qk1rD9V2H7bEZziY4Ojpo66ljb4Wxv0nhd/+U5d8UBj6GZObtMWonOgY6OkzJWv66l3t+mXdv1BT33xY4Ojh4Pbm/rL9o7Olbyr5d8xnhGz3RaOjr+opL/R1rPz/j1EwAA4Yw/I97p6FgJnaSIt9V2P5+Q+ELaumCs3ZS545nxPCMIvxQSGS25p+ESGaVnpXi8vyNb1pSdtbZ679W4Zhet/hl5nXT79H47kVBCUrN5MoPd2t/S1pbPLHMgs1pcXpGRSSqhtpo1U9tbW9rZP/SZkbQkMita7m1fXLP22LddbZLiWlhc1EJfDkpcs3M+aVTOhah2mkZfvy30p2RMrX8Dc2bPrbMRJ5sX1+ziknUBrXcJv4D7jiNY/wYXus9mF2VY0+LaPzzUnp2yc27pHrNzvtvbOmr2+s7P7OKyVleXteib9wQAQHgjB+LODTa2tmtqq63atr3WsNmUes/HO93db1aLK/bqDe5g/CoE4ZISyf78Y+9zi70ijZoyvWs8O7m0x50RginrQkIlDa0uL1s3P2rXtL3fOvnMRGKM2XEr4F1eXdXKiqFkwl4pZEg6xMzAkoYz8j0p02lpf8e17nlv//NwLkSdGxJh9Uyrf8OwL3ZOzvlcFxGXFVv3r2Tj3Ve8z70C928go/XZ7KK1Kk+zZl8Hcm5RuCTNKp1J9KendA510Dy77wAAmKSRA/FIxL3B+M6VCMIj1zpS0xWoxheWezOWOzt71triE1qOMh6f1eLyqlYyCesH26jL9tk5380AS/R0rEgxQnag65uXfF1Fu7pSfNY+Q2MPSKfVVFtJpQeTwwEAmJqRA3FnXV8roErKsJdiM5J2UDyt5fz6gnH7YrZrE4TbM6K9/vV5jNAPfoGqM2PZtqOls2eTw+mlGvnMlg5wUktcPwZaB9YPsETGsyyivaykm5OicXzmgujT6d+TmeyTwO9M3vQTyTX7PKOBSe1x+PRvcKP1mbWsZUIZI6OEmjJHvhDWT4C17+2LNq30FDsdyPcsBAAA0zNyIO447pvWcgKFKXMH49cmCLfMJKy0kb391tnBRkBOoNo0Xbe07xvIpEaLw1va39nXYcsTbHc6au0fWGkLvsGfq3Snpf09K+j2+zEwE5/p/X2ndaj9A5/UFCcnuLatnUN3XnBHrcP9vvSYafSvJM2mM0o4bfDcZKrTOtT+oRN2z8pKc2/K7CtnLWdYG5q2Ekbw/g0ibJ91Dq1lABOZJS3MLvRSofb88pRCmrFOPah51gpLimshnZTaNR0cttRsn72iTWt/R1tbO9of/IUEAMBIxlhH3NJ/O3t7neAZn7V+wxp1HfEhwq/jfIaz1hE/Y21j77rGcp7bf9d7f+Bzht2K3jK0Pac6vU5p1B88PutA90nKWDlZF7s3Rn4843ZqWb9+GDoe3jWjT++LgXpDOLXNfdt3Sr8lkjKW7eMh5L4T/PNP6y9L7zOkcH3mu473kPXFQ7XBNuRvfMu6+/nM/TtMWQAAghlzRtw7Ax5t3uf1ENfC8oqMpLW6yWSc1Hki0bsbpmFNJ9sXb4ZhnbnIeNuasOt2BeFDJRJKZgyteKLf+MKyVjJJV712nYY18zxgdtG+g2X/NiYzS570qWn0ryW+sOzbhkQyI6NvNvak3/rLGVpxgvBJGdK/4QTts5b2t/3WC49rYckat/71xUcwu6gVIxnw4lPn7EOQizRnNZdMWPtM+qyyAAAEM/aM+NRc9BlxTJwzRuPMOmM4+neQdSfNyXzHAAAQ1pgz4lPk3AHPvpCr1emoM+qjtW+tVTxGHiyAq6TTu2V9IpMmCAcAROLizojLPSs+IcyGX2jM2E4X/euTQ06+NwAgQhd3RlyS4gtaXjGUTCSUGPORNFYIwgHYnJx7gnAAQHQu9ow4AAAAcEVd7BlxAAAA4IoiEAcAAAAiQCAOAAAAROBKBeKdwx1tbW1pJ/SNZ64q6xbz1683rut2AwCAy+QKBeIdtZrWQoft5hFBmDo63DHVbEvqeN+74jqS2k2ZWwTjAADg4prIqimdwx1tN5O9pcBa+1syj0dcnzfQ2uEJZVaWPbcmP1knOZE0tHxllirsqLW/p4Nmu9cniWRG6fTCqbeHt+4Y6N9P14KzH7F2PAAAuKAmMiN+3G5LM3E76O6ocyzX8/MTX1jW6urqlQrCD3e2ZbqCcElqN2syt0+Z7W3t23cMXLqeQbisNeiXMgmpaYpMJQAAcBFNYEbcChabyRUtL8St/NwtU81JzUTad8K7jncDdGb4lcjIWHJmwDtq7W/LbA67U6g1HjWNeEZiUi7EuNn7IndPBAAAF1Dsu9/97n/zvuiVSCS8L9lBzr9q76Chx0+lp48bOjg40MHBkY4l6fjIet5JKD034/3j4DotHRwdK5FMy78apx0H9ucP+czOoXbefU9PEmk985cd/evev+ug9ayS81/Q/7v/R7239+9qdRKa7/u7jlqH/1P77+3p3w8OdHDQUqvzRd2Ym9EXXKXcWvs7+te9j9RJzA9pb1At/c/3/reOlZTx+n/RbO8Dv6CZuaSebTX0+PEzSqTn1Pcxrf+p9/73sRIvfFX/+Tn/VnYOd/Tuex/p2eQNPf1/XdvX6ujZG3Ma8mfhnDluAY00bo4ZJZ5tqdFs6rPEmO0AAACYsImkplwmxwc7Mu2LOtVu6mB/T7XeRZ4HOnRd2Nja35ZZa7rSQtpqN01t7xwOuf6xpaNmW1JbzYNhZQJqHakpKZFJa3BCOa7ZZEJSU0eetIvWUVNSQsnTEsglq417nu1rN1U7LeUlQmHGzS0+m1RCUtPbUQAAABEbIxCf1eLqqlZXDSUlJY1Vra6uanUlo4T7+dTzEpx2nLTlNO12W4nMilaNpBWMNttKGqtaySSsQPvYLmjnWStpaKVX/4qMZEJq13TgG9fNai6ZsALh9OxEUiFm4v61xON+07t2fn4ieeqFnI52W0r0tm9FRlK+wf1FEHjcvOKzSiYkHXfG+2EEAAAwYWME4rZOR8dKKOHEhcdttd3PL5pERkvuKxgTGaVnBwNba2Y5KWPRHVDHNbuYVvKUGdbZxWWtri5rMUgkfIpOZ1hk2e+44w4vj9Vuh7hQ1l5dxiob1+yc9TOmv86AOofa2drSlvMwm5Kkpul6bWtr9AsnA47boLjiM9avjmA9CgAAcD5GDsSdm+dsbdfUVlu1bXcA5jzfGZoyEJVEsn+m2vvcYs8sqynTHVxubWlry1RT059hPTvAtAybMQ8iOTftsxWT4x0n73MAAIDLZuRAHOdj2Ox00BnzcxNf0HIvhWfVTiFxpSjZj6lnKgEAAFwSIwfizprdVo5uUoYdaBlJK23Ayju+rDeTsdMZetvh85j2cngzCSUktZstn5n3lg5qbUlJ9U9qzyhBPrSHkzef6F9dBgAAIGIjB+KO47b7VjNOSsflN5OwLsrc229pyKS0r9b+jra2dkbPhXbEF5ROSmrXtL3vCsY7LevW9b4rqjj50E21QrT5Suu01AyTNw8AAHBOxg7EJZ/ZxvMMelr7g/nbTbP32s6ISerxhSVlErKWK3Ty38+86HCCyxdKmk1bK9CoaWrb+extU7W2z8WLzt/M2auKEIlLkjota3nGy5QPDwAArocxA3HvDLi9aseVENfCsrVcod/tjPxNePnC+IKWVwxlku4WJJTMGMPvFDmbtn5A1A6iXQ98dvEC5IR31GpadyZNR9oOAACAQRO4xT0uHPv28onMipZ9Zs2vi87hjrZr1nrj0f4gAAAAGDTmjDgupNlFGUmpXdu7cMtHnpvOofZqbSlpEIQDAIALiUD8ippdNJRU27pl/XULxjst7W/X1E5ktEIUDgAALigC8StrVourhnV79+uWnRKXlEjKGJZHDwAAcAGQIw4AAABEgBlxAAAAIAIE4gAAAEAECMQBAACACBCIAwAAABEgEAcAAAAiMJFAvHO4o62dQznLVbf2t/qeAwAAAOg3kUD8uN2WZuL2ms0ddY7leg4AAADAawKBuBV4JxIz9vNjtdueIgAAAAD6jHFDn5b2t0w1vS97JQ2tcptxAAAAoM8EZsQBAAAAhDXGjLjDmhmXsarFWUmdQ+1s1zTjPAcAAAAwYPwZ8U5Hx0roJEW8rbb7OQAAAIABI8+Idw53tF0766rMhDIry1pg+RQAAACgz/gz4gAAAABCG3lG3GHNjM/IWF3UrH0zH/M4o5XlBdYRBwAAAIYYe0b8uG/RcPtmPgAAAABONXYgLklKJNR3bSZ31QQAAABONWYg7p0B566aAAAAQBBj54gDAAAACG/MGXEAAAAAoyAQBwAAACJAIA4AAABEgEAcAAAAiACBOAAAABABAnEAAAAgAgTiAAAAQAQIxGFraX9nXy3vy6FNqh5EoXO4o62tLe3sM4LAKDiGcB7Yz64OAnFI6uhwx1SzLanjfS+kjqR2U+ZWNMG48+XEd9MoOmo1rVvjtptHkYxfEIyx5Tr1Q6e1r52dLW1tnTwu5nZfjmNoelrad43R1taWti7mQF1y130/u1omEoh3Dne0tXPYi+Fa+1t9z0fTUWt/RzuuA3pnZ1+tzni1Xm0+fbZ/qNYZXdba31atnVBmZVGzce+7IcVntbiSUUJNmXwBXzJxzSYTkqREck6z3rfPQedwRzsR/YjDxdQ53NG22VTbijsuuOiPIUzXxfiOYj+7SiYSiB+329JMXFYM11HnWK7no2hpf2tbZrMt93dvu92UuX0Q8QFwUXV0uOPTZ82azO1TvjRa+zKbUiKzpIXRB6xffEFLmYTUNC/orBWGiS8sa3V1VcuL0Xy1H7f7919cd87MX0IZY0Wrq6u9R0S76JmiPoaiNavF3hgZSnrfvgIuynfU9d7PrpYJBOJW4J1IzNjPj8eeuWjtm2pKSiQNrbi+eFdXDGXsX4Ho1zncU60tKZGRseL02YqMpKShs9MdHR40pURGSxOLwi3xhbSSkpoH454ZAXB92f+fJNNaGPt0HQBcPM88fPjwc++LXsmk3+/alva3rID5VElDqyF/sbX2t2Q2E8qsLJ85S9s53NF2TcqsLGu2ta+9WtP6tZpIKrO0OPj3nZYODw7UdM0cJxJJpZeGpGXY5Wt2PpaUUDKzpMXBitU6PNCB8/lKKJFMa2lxduiZgdb+jsymlDSWx5zdccYiKWN10XOaypopr7V93mvta8tsKpFZ0fLA9lis/m0raXhmoMb52xCsfcGn7T32ttv7mfsz050A+0PgcbM+5zizouUF6XB/r7dPJJIZLS0ueMoHrTe4of0ZYCxO53Msn3rcerfN6oN0esH/GDqL3f7TuLdtemMc3Mn3zpLiLVfdPm0IPG6dQ+1s1zRjrGruaEdmsy0lMlpZnlXL3t8SSaM3Axb6uy9wP4Td18PoqLW/p4Og37+e43tcgcci5BhP4hhSIqGE2ppJn7QtTHvtvwg4xmGNUm+QsQtQb8jjInC9YcY45HeUxduGMb8npVD7WeBtC2la9V5nE5gRn5a2agetwLOpzb0tbbu/1NpN1bZ3dNhXQUeHe6Zq3vSNdtM/faNzqJ1tq/yJtpq1PU+9Vp616f58tdVumtoemivf0lGzbdU37qxx68g6g5BJ+wSrTi5ZU0eeDWwdNSUllBz9W+FU8dmkEpKa3g8OYSaRkHSsoZcGdDo6lvuMjCQldHyw47M/DI5x6HFrW2lT7n2i3axp23PGIXS9l8jgttkpUAfe3p2mKY5xYG019zx1D2lDGMcHdrAhq74DVyDcbh4MfPc09/z6wfvdN0I/BNzXgxuSPtduynS3t3Pous7FDjqaZv8FgMPaPHHTGGO7HzzHkNrtCZxN9tZ7xhgHdBHqDXNchKl3OmPs14Yoviens23Tq/d6in33u9/9b94XvRIJv3SQGc2l00qnE+ocHClhrOrrS2mlk8+q1XisG87zOXeAFMzMXEKd1pGOHx+pcdBS59kvKvHcjL7gLSjpsycfqfG4radPrVSWV76+pK+mk0o8+0RHj9t6+h+Smn/O+cvP9OTJZ7rx14b+dumrSqfTSqeTSnQaOjo+1jOJtE6a29HhH001++q1yz97rM9m5tSrtrWvf/1fx1LS0Iq7XOeJjh439VlfvY4ZPdNp6ej4i0r+H2k9P+O3dQF1Wjo4OtaN+a/6fI70hadPdHB0rESyf/se/aWhx198QV/9z8/59q16/fvU87cnn/nFG//J1b8eX/iC/r9WQ4+f/kcl54d/xmmstj/WF27Yn9/a19a//kXPJuet/n/S0L+7tv1kf3javz/4jXGoceuodXCkx8ePdayEMsYr1j6UTKjTONLx8TNKpOc0E7re4MYai1M5x/LJ8XycSA45dlv6y96RjpMZrXz9b+1tSyuZeFafPfMFzT3n9zdnmJmzPzutROdAR8dJGatf11KvTem+7ZreGAfnjMXA945PGwKP22dP9FHjsdpPnyqRWdHr85/p4Oixjo+fKmmsyviPLTUet3vHwtB+8PvuC9UPIfb1EDqHf5TZfGqlz73yt1r6qqsNx209/ixh7XN2Pzz1VuD2xRv6TyN8pwQei5BjHOoYav1Pvfe/jz39kFby2Y4aj/u/p8O0N9wYhzByvdZ+NLwfAtYb8rgIXG+YMQ75HTWV70kp1H4WeNtCmla919n4M+Kdjo6V0EmKeFtt9/ORzGpxeUVGJqmE2mrWTG2fsQJIIrOi5d5pp7hm7RzldtM9qx7XwuKiJ9cwrtk5n9SbTstazs8+5XXyF3HNLvSffrFmlpMyvOUW7TzpITPCs4vLWl1d1uKYM9KdzrH3JV/HfdPKdu7lWBfVniWu+Iw10xOshT5mEkq42m5ta1vNvh3BZ3/rG7eTMXb3wWjjlpSxunyyD8Vn5d19Rqv3kmk21XKNQXx2QYsLg+djpmpqYxxCgDaE5r1mI5FRelaKx707uSXId99o/XD2vh6cc9FlUsay+9R8XLOLS8pYp86s2bT4gpa9F/wljb4LNVeXx0mPCWnCY9wbi75+kOJjbtBoY3y2C1NvwOMidL2a/Bj3XJLvyZFMq95raORAvGOvYbu1XVNbbdW27VOGZlPqPR88PRqcFfAur65qZcVQMmGf1vE55SpJMwPfYjPyncjvtLS/Y7fdefjlfh1bp0+Tc2cdNPYqMWrKdNfpPq163PE5HTY53i+iYQb76BKIx10zb9Z/5slkshdkWIH5zMB/YlMbN5+lomYXV7Xay2Efsd5LY1aLhvUDuWZua2trR/uHw38gT9PUxjiEs9sQXiLpDiAGn3sNHtfe774R++HMfT0M56LLwTrl/GA/LQUtQpMdY3ssEonQZxRON+IYn+ni1Os9DrzPLeHr1cTHWJfse3I006r3Oho5ED9P8fisFpdXtZJJWEH+qDlWds53M0AiXtBZ5otk2C/Ry7gtJ6ygot0+tv8zT2ounVCi3VSrYy+dOfH/1HCq2UUtr65oxcgomWirWavJ3OYOb8DZxl9VDJcE35MIaORA3FnD0gqOkzLsU4ZG0jplZC07ePaqJ2E4S+L5/aId4KSWuFIvWgc1tSUlMp5lEa01/vo4s8zDgtsT9mxOb5t9HtM+jWqnb/Sn4ThaOqhZp4T7f8Das2ZB+tJH6yhIcD+J2R+7f4876rSO1EwkNBOftb7YnOmFkdJrpjVu06p3uGBjMWlx6zTr8qpWV1eUSQxeMDW6Sc2Mnv9YhDG1cRv47rtA/eB7F0BnFnPwzNZ5mdpYDLC/d33S9ayUimAG2zutMaZef0G/o6b5PYmrYuRA3HHc9/Pe+UIdR0v7O/s6bHkCxE5Hrf0D69SSb+DlKt1paX/PCrr9Tp/MxGd6f99pHWr/wOcLcHbOyrOsbWvn0B3gdtQ63O87kGYSCald095+K+DBaWnt71inrAb/ZwonvqC01Vht77va2mlZt66XfFZUcfK3rZnlYZwfJM0j52pz6+6dvavXTzMQEIzG6t+2WkdN+3SktRJMu3mggf+PQhh13M4yrXrHGotJ6Rxqf//Qc4dbZ2WettpjjIecvlNbzZbfj8rwpjUWYUx/3Pq/+w59vvui7wcnv9y6p0Hf9+m+fQ8E37SVyZr+WJzFScNp6sD5T6TT0uHOlvwyJMO0d1pjTL39An1HTfl7ElfLGOuIW1r7WzKPM1pZXlDcWbN6xn9dy2B81snsk5ThuhW7s86qL8/6mqeWlYau1TrIu8a5s1Z3fynHQL1S/3YmnP4bg73Wqm8ThtU/dC1atyHjYQfHp/3t0DVwQzoZN1e/u8ZmcO1fn8/03dYw4xZkTVxHmHrDGH0sTjV0P7f01Xvafua7jn1IQ9pyPmMcXLg2BBw3u2/lPPfWZT93PvPU77OB/TRMP4TZ18MY0g+SlEjKWPbbdybdliFt8I5F2DEest86ghxDiWRSajY14zcW/UV92xtujMMIUW+Yfghab8jjInC9YcfY855XkDG2jPE9OeSzHSPvvyFMq97rbMwZce8M+CTy32a1aN9Bs+96o0TCutOmKwgfKpFQMmNoxfOtE19Y1krGWtvaLmjVaWT6P8sxu2jnd7nftW7o07+fxbWwvCLD2+ZTzWoumbDqS/tddBJSfEHLA3cetfvBLwiXpNm0daqsduBzutgxq8WVjE6qdeq004SGsldJsK9sH8fJxaiuU9f2GQvJ72K1oEYZtyCmVe+oYzFB8QUtGUnPxYD2cTTqfy5us4taGah/HNMaizCmM27x2bT1Pdl3yCeUzKz4BK0XpR8Gv6MSSUMrvkH4NExnLEKJL2jZ6P9/KGmsaHlOPoFbmPZOa4ypt0+Q76hpf0/iShl7RjxqQ3+dIZgp/YplXAAghIGZXQDXwZgz4rj0ZhdlJKW2z91CR9Y51F6tLSUN/kMBAAAYgkAcml00lFTbuj3tuMF4p6X97ZraicxAahAAAABOEIjDykNctW6a5J9MHkJc9oVXQ/LSAQAAIF2FHHEAAADgMmJGHAAAAIgAgTgAAAAQAQJxAAAAIAIE4gAAAEAECMQBAACACBCIAwAAABEgEAcAAAAiQCAOAAAARIBAHAAAAIgAgTgAAAAQAQJxAAAAIAIE4gAAAEAECMQBAACACBCIAwAAABEgEAcAAAAiQCAOAAAARIBAHAAAAIgAgTgAAAAQAQJxAAAAIAIE4gAAAEAECMQBAACACBCIAwAAABEgEAcAAAAiQCAOAAAARIBAHAAAAIgAgTgAAAAQgf8faktPtNYcZDkAAAAASUVORK5CYII=;" vertex="1" parent="1">
          <mxGeometry x="49" y="1100" width="738" height="515" as="geometry" />
        </mxCell>
      </root>
    </mxGraphModel>
  </diagram>
</mxfile>
